<?xml version="1.0" encoding="UTF-8" standalone="no"?>
<svg
   xmlns:dc="http://purl.org/dc/elements/1.1/"
   xmlns:cc="http://creativecommons.org/ns#"
   xmlns:rdf="http://www.w3.org/1999/02/22-rdf-syntax-ns#"
   xmlns:svg="http://www.w3.org/2000/svg"
   xmlns="http://www.w3.org/2000/svg"
   xmlns:xlink="http://www.w3.org/1999/xlink"
   version="1.1"
   id="svg9899"
   viewBox="0 0 602.36221 496.06298"
   height="140mm"
   width="170mm">
  <defs
     id="defs9901">
    <radialGradient
       id="radialGradient4301"
       xlink:href="#linearGradient4205"
       gradientUnits="userSpaceOnUse"
       cy="252.55"
       cx="2009.8"
       gradientTransform="matrix(-0.16712,0.16013,-0.16489,-0.17208,2125.9,549.67)"
       r="361.60001" />
    <linearGradient
       id="linearGradient4205">
      <stop
         id="stop4207"
         style="stop-color:#de7e31"
         offset="0" />
      <stop
         id="stop4209"
         style="stop-color:#de7e31;stop-opacity:0"
         offset="1" />
    </linearGradient>
    <radialGradient
       id="radialGradient4303"
       xlink:href="#linearGradient4205"
       gradientUnits="userSpaceOnUse"
       cy="252.55"
       cx="2009.8"
       gradientTransform="matrix(-0.1851,0.17462,-0.18871,-0.18736,2168.4,524.28)"
       r="361.60001" />
  </defs>
  <metadata
     id="metadata9904">
    <rdf:RDF>
      <cc:Work
         rdf:about="">
        <dc:format>image/svg+xml</dc:format>
        <dc:type
           rdf:resource="http://purl.org/dc/dcmitype/StillImage" />
        <dc:title></dc:title>
      </cc:Work>
    </rdf:RDF>
  </metadata>
  <g
     transform="translate(-39.118074,-42.171491)"
     id="layer1">
    <g
       id="layer1-7"
       transform="translate(-377.34484,-18.939718)">
      <g
         id="g3813">
        <g
           id="g4012"
           transform="matrix(4.8699685,0,0,5.3829886,-5899.4,-4118.4854)">
          <g
             id="g3215"
             transform="matrix(0.40805,0,0,0.40805,649.2,452.58)">
            <g
               id="g14224"
               transform="matrix(0.50322298,0,0,0.45526384,1201.1279,804.63145)">
              <g
                 id="g13654"
                 transform="translate(-250.77499,-97.778737)">
                <g
                   transform="scale(1.028306,0.9724732)"
                   style="font-style:normal;font-weight:normal;font-size:251.83680725px;line-height:125%;font-family:sans-serif;letter-spacing:0px;word-spacing:0px;fill:#000000;fill-opacity:1;stroke:none;stroke-width:1px;stroke-linecap:butt;stroke-linejoin:miter;stroke-opacity:1"
                   id="text9769">
                  <g
                     id="g9837">
                    <g
                       id="g9632"
                       transform="matrix(1.9324896,0,0,2.2587034,-2077.2952,-1716.8773)">
                      <path
                         id="path3221"
                         d="m 1634.8,951.45 c 76.95,3.303 162.59,8.1094 240.84,4.3789 l 0,14.596 -241.33,-2.4327 z"
                         style="fill:#a9011a;stroke:#000000;stroke-width:0.34057999px" />
                      <path
                         id="path3224"
                         d="m 1634.3,960.95 c -11.317,22.399 -2.8441,32.758 -2.1966,42.413 59.792,5.9645 175.71,13.781 242.31,1.3761 2.3062,-10.912 8.9876,-30.519 -1.71,-41.356 -85.205,10.237 -178.79,3.8386 -238.41,-2.4327 z"
                         style="fill:#e99442" />
                      <path
                         id="path3226"
                         d="m 1641.1,938.31 -0.4865,10.217 c 70.024,-8.7307 144.81,-11.762 234.03,9.2443 l 0,-12.164 c -75.825,-19.264 -155.12,-23.034 -233.54,-7.2981 z"
                         style="fill:#e9afc6" />
                      <path
                         id="path3228"
                         d="m 1631.3,950.35 -17.94,-4.2553 10.217,13.623 -1.9462,8.7578 17.516,-11.677 16.056,9.2443 9.7308,-11.677 9.7309,15.083 3.8923,-5.352 17.516,0 16.056,3.8923 3.8924,-9.7308 17.516,3.4058 5.352,8.2712 10.217,1.4596 6.325,-10.217 10.704,7.7847 8.7578,-9.2443 9.7309,5.352 c 0,0 6.8116,-1.4596 8.2712,0.48654 1.4596,1.9462 12.65,-4.8654 12.65,-4.8654 l 3.4058,4.3789 c 15.126,-2.9269 14.99,1.1904 18.975,3.4058 l 3.4058,5.8385 3.4058,-10.217 13.623,-3.4058 6.8116,3.4058 22.973,5.352 -2.0517,-10.217 2.9192,-11.677 2.9193,-6.325 -17.516,8.2712 -9.2443,-4.3789 -5.8386,0 -5.3519,2.4327 -4.3789,-0.97309 -10.704,-1.9462 -5.8386,-6.325 -12.164,4.3789 -15.569,-5.352 -13.137,4.3789 -12.65,-4.8654 -9.7308,3.4058 -5.352,-1.9462 -36.004,0.48654 -13.137,0.97309 -14.596,-7.2981 -12.164,9.7308 -10.217,0.48654 -3.8923,-7.7847 -10.704,5.8385 -12.164,7.2981 -4.8655,-2.4327 z"
                         style="fill:#979917" />
                      <path
                         id="path3230"
                         d="m 1631.4,928.09 c 2.1754,3.7302 -1.8988,6.4872 12.164,10.217 85.874,-16.147 158.92,-8.502 226.73,6.325 10.614,-3.2255 4.918,-10.529 6.325,-16.056 -48.719,-35.5 -233.33,-51.524 -245.22,-0.48655 z"
                         style="fill:#6b240d" />
                      <path
                         id="path3232"
                         d="m 1630.3,900.78 -2.5665,30.518 5.061,-3.2102 12.65,-10.704 c 32.765,-8.0033 65.292,-14.765 147.42,-4.8654 12.61,3.709 21.25,15.32 28.706,26.76 19.096,-18.329 26.277,-32.629 55.952,-7.7847 l -7.7847,-19.948 c -88.127,-49.058 -229.69,-21.933 -239.44,-10.766 z"
                         style="fill:#ffae2e" />
                      <path
                         id="path3234"
                         d="m 1630.2,903.15 c 89.865,-16.453 194.29,-8.4657 239.87,8.2712 49.777,-110.63 -261.02,-123.19 -239.87,-8.2712 z"
                         style="fill:#ed9c49" />
                      <path
                         id="path3236"
                         style="fill:url(#radialGradient4301)"
                         d="m 1630.2,881.97 c 79.337,25.195 191.54,3.5201 239.87,6.0982 15.234,-77.716 -224.07,-90.818 -239.87,-6.0982 z" />
                      <path
                         id="path3238"
                         d="m 1630.2,880.27 c 78.098,6.1193 191.91,1.2022 240.55,5.9189 15.277,-75.431 -224.72,-88.148 -240.55,-5.9189 z"
                         style="fill:url(#radialGradient4303)" />
                      <path
                         id="path3240"
                         d="m 1698.1,855.01 c 1.5859,-1.2724 3.7755,0.18926 3.9641,1.2313 0.1885,1.0421 -1.3078,3.0316 -3.2813,2.5423 -0.7545,-0.18703 -2.9268,-0.76548 -3.9641,-1.2313 -0.6949,-0.31205 1.477,-1.0946 3.2813,-2.5423 z"
                         style="fill:#ffffff" />
                      <path
                         id="path3242"
                         style="fill:#ffffff"
                         d="m 1720.9,856.11 c -1.8345,-0.87688 -1.4675,-3.4838 -0.6104,-4.1058 0.8571,-0.62197 3.2988,-0.13691 3.7142,1.8535 0.1588,0.76091 0.58,2.9691 0.6103,4.1058 0.02,0.76146 -1.627,-0.85585 -3.7141,-1.8535 z" />
                      <path
                         id="path3244"
                         d="m 1711.4,839.05 c 1.8374,0.87077 1.479,3.4789 0.624,4.1038 -0.855,0.62482 -3.2983,0.14789 -3.7203,-1.8411 -0.1613,-0.76038 -0.5899,-2.9672 -0.624,-4.1038 -0.023,-0.7614 1.6299,0.85042 3.7203,1.8411 z"
                         style="fill:#ffffff" />
                      <path
                         id="path3246"
                         style="fill:#ffffff"
                         d="m 1744.9,836.31 c -0.054,2.0325 -2.5842,2.7591 -3.5014,2.2296 -0.9171,-0.5295 -1.4685,-2.9571 0.1802,-4.147 0.6303,-0.45491 2.4755,-1.739 3.5014,-2.2296 0.6872,-0.32866 -0.1191,1.8345 -0.1802,4.147 z" />
                      <path
                         id="path3248"
                         d="m 1753.1,855.19 c 1.722,-1.081 3.7285,0.62332 3.7957,1.6802 0.067,1.0569 -1.6487,2.8606 -3.5526,2.147 -0.7279,-0.27277 -2.819,-1.0978 -3.7957,-1.6802 -0.6543,-0.39009 1.5933,-0.91706 3.5526,-2.147 z"
                         style="fill:#ffffff" />
                      <path
                         id="path3250"
                         style="fill:#ffffff"
                         d="m 1790.5,851.85 c -0.054,2.0325 -2.5843,2.7591 -3.5014,2.2296 -0.9171,-0.5295 -1.4685,-2.9571 0.1802,-4.147 0.6303,-0.45491 2.4755,-1.739 3.5014,-2.2296 0.6871,-0.32866 -0.1191,1.8345 -0.1802,4.147 z" />
                      <path
                         id="path3252"
                         d="m 1766.7,837.49 c 2.0261,0.17093 2.6054,2.7391 2.0239,3.6241 -0.5815,0.88504 -3.0369,1.2955 -4.1297,-0.41912 -0.4178,-0.65547 -1.5933,-2.5717 -2.0239,-3.6241 -0.2884,-0.705 1.8247,0.22466 4.1297,0.41913 z"
                         style="fill:#ffffff" />
                      <path
                         id="path3254"
                         style="fill:#ffffff"
                         d="m 1795.6,875.03 c -1.9326,0.63172 -3.4665,-1.5079 -3.2756,-2.5496 0.1909,-1.0416 2.2924,-2.3761 3.9668,-1.2225 0.6401,0.44097 2.4691,1.748 3.2757,2.5496 0.5403,0.53696 -1.768,0.50378 -3.9669,1.2225 z" />
                      <path
                         id="path3256"
                         d="m 1819.8,863.62 c -0.054,2.0325 -2.5842,2.7591 -3.5013,2.2296 -0.9172,-0.5295 -1.4686,-2.9571 0.1802,-4.147 0.6302,-0.45491 2.4755,-1.739 3.5013,-2.2296 0.6872,-0.32866 -0.119,1.8345 -0.1802,4.147 z"
                         style="fill:#ffffff" />
                      <path
                         id="path3258"
                         style="fill:#ffffff"
                         d="m 1809.4,842.22 c 2.0323,0.0587 2.7527,2.5909 2.221,3.5067 -0.5317,0.91583 -2.9606,1.4613 -4.1466,-0.19026 -0.4534,-0.63137 -1.7329,-2.4797 -2.221,-3.5067 -0.327,-0.68798 1.8342,0.12349 4.1466,0.19027 z" />
                      <path
                         id="path3260"
                         d="m 1831,879.61 c -1.8202,0.90605 -3.6489,-0.9878 -3.6116,-2.0461 0.037,-1.0583 1.9226,-2.6842 3.7469,-1.7864 0.6974,0.3432 2.6971,1.3704 3.6116,2.0461 0.6126,0.45269 -1.676,0.75554 -3.7469,1.7864 z"
                         style="fill:#ffffff" />
                      <path
                         id="path3262"
                         style="fill:#ffffff"
                         d="m 1860.5,873.42 c -0.054,2.0325 -2.5842,2.759 -3.5013,2.2296 -0.9171,-0.52949 -1.4685,-2.9571 0.1802,-4.147 0.6303,-0.45491 2.4755,-1.739 3.5013,-2.2296 0.6872,-0.32866 -0.119,1.8346 -0.1802,4.147 z" />
                      <path
                         id="path3264"
                         style="fill:#ffffff"
                         d="m 1843.5,860.7 c 1.9082,0.70215 1.7857,3.332 0.9902,4.0311 -0.7954,0.69912 -3.2717,0.44367 -3.8707,-1.4994 -0.2289,-0.7428 -0.8541,-2.9022 -0.9902,-4.0311 -0.091,-0.75626 1.6997,0.70054 3.8707,1.4994 z" />
                      <path
                         id="path3266"
                         style="fill:#ffffff"
                         d="m 1766.3,868.79 c 1.8889,0.75259 1.6965,3.3782 0.8828,4.056 -0.8137,0.67775 -3.2823,0.35661 -3.8295,-1.6017 -0.2092,-0.74862 -0.7767,-2.9238 -0.8828,-4.056 -0.071,-0.75842 1.6805,0.74543 3.8295,1.6017 z" />
                      <path
                         id="path3268"
                         style="fill:#ffffff"
                         d="m 1709.9,870.8 c -0.054,2.0325 -2.5842,2.7591 -3.5013,2.2296 -0.9171,-0.5295 -1.4685,-2.9571 0.1802,-4.147 0.6303,-0.45492 2.4755,-1.739 3.5013,-2.2296 0.6872,-0.32866 -0.119,1.8345 -0.1802,4.147 z" />
                      <path
                         id="path3270"
                         style="fill:#ffffff"
                         d="m 1738,879.19 c -1.4138,1.4612 -3.7694,0.28569 -4.0872,-0.7245 -0.3177,-1.0102 0.9173,-3.1717 2.9366,-2.9337 0.772,0.091 2.9997,0.39242 4.0873,0.72451 0.7285,0.22245 -1.3281,1.2712 -2.9367,2.9337 z" />
                      <path
                         id="path3272"
                         style="fill:#ffffff"
                         d="m 1685.3,878.39 c 1.0254,1.7557 -0.7423,3.7067 -1.8007,3.74 -1.0585,0.0333 -2.8065,-1.7392 -2.0324,-3.6194 0.2959,-0.71877 1.1874,-2.7825 1.8007,-3.74 0.4108,-0.64147 0.8657,1.6218 2.0324,3.6194 z" />
                      <path
                         id="path3274"
                         style="fill:#ffffff"
                         d="m 1677.4,848.96 c 1.4502,1.4252 0.2563,3.7716 -0.7563,4.0814 -1.0126,0.30985 -3.1645,-0.942 -2.9108,-2.9594 0.097,-0.77123 0.4158,-2.9965 0.7564,-4.0814 0.2281,-0.72677 1.2608,1.3379 2.9107,2.9594 z" />
                      <path
                         id="path3276"
                         style="fill:#ffffff"
                         d="m 1652.1,871.13 c -0.054,2.0325 -2.5843,2.7591 -3.5014,2.2296 -0.9171,-0.5295 -1.4685,-2.9571 0.1802,-4.147 0.6303,-0.45492 2.4755,-1.739 3.5014,-2.2296 0.6871,-0.32866 -0.1191,1.8346 -0.1802,4.147 z" />
                      <path
                         id="path3278"
                         style="fill:#ffffff"
                         d="m 1669.1,871.4 c -2.0332,-10e-4 -2.8249,-2.512 -2.3194,-3.4425 0.5056,-0.9305 2.9182,-1.5445 4.1503,0.0729 0.4711,0.6183 1.8025,2.4297 2.3194,3.4425 0.3463,0.67846 -1.837,-0.0715 -4.1503,-0.0729 z" />
                      <path
                         id="path3280"
                         style="fill:#ffffff"
                         d="m 1807.2,856.74 c -1.5859,-1.2724 -3.7756,0.18926 -3.9641,1.2313 -0.1886,1.0421 1.3078,3.0316 3.2813,2.5423 0.7545,-0.18703 2.9268,-0.76548 3.9641,-1.2313 0.6949,-0.31205 -1.477,-1.0946 -3.2813,-2.5423 z" />
                      <path
                         id="path3282"
                         d="m 1778.5,860.24 c 1.8345,-0.87688 1.4675,-3.4838 0.6104,-4.1058 -0.8571,-0.62198 -3.2988,-0.13692 -3.7142,1.8535 -0.1587,0.7609 -0.58,2.9691 -0.6103,4.1058 -0.02,0.76147 1.627,-0.85584 3.7141,-1.8535 z"
                         style="fill:#ffffff" />
                      <path
                         id="path3284"
                         style="fill:#ffffff"
                         d="m 1777.7,841.81 c -1.8374,0.87077 -1.479,3.4789 -0.624,4.1038 0.855,0.62482 3.2983,0.14789 3.7203,-1.8411 0.1613,-0.76038 0.5899,-2.9672 0.624,-4.1038 0.023,-0.7614 -1.6299,0.85042 -3.7203,1.8411 z" />
                      <path
                         id="path3286"
                         d="m 1752.1,846.29 c 0.054,2.0325 2.5842,2.7591 3.5013,2.2296 0.9171,-0.5295 1.4685,-2.9571 -0.1802,-4.147 -0.6302,-0.45491 -2.4755,-1.739 -3.5013,-2.2296 -0.6872,-0.32866 0.119,1.8345 0.1802,4.147 z"
                         style="fill:#ffffff" />
                      <path
                         id="path3288"
                         style="fill:#ffffff"
                         d="m 1740.5,858.63 c -1.722,-1.0811 -3.7285,0.62331 -3.7957,1.6802 -0.067,1.0569 1.6487,2.8606 3.5526,2.147 0.7279,-0.27278 2.819,-1.0978 3.7957,-1.6802 0.6543,-0.3901 -1.5934,-0.91706 -3.5526,-2.147 z" />
                      <path
                         id="path3290"
                         d="m 1711.7,858.73 c 0.054,2.0325 2.5842,2.7591 3.5013,2.2296 0.9171,-0.5295 1.4685,-2.9571 -0.1802,-4.147 -0.6303,-0.45492 -2.4755,-1.739 -3.5013,-2.2296 -0.6872,-0.32866 0.119,1.8346 0.1802,4.147 z"
                         style="fill:#ffffff" />
                      <path
                         id="path3292"
                         style="fill:#ffffff"
                         d="m 1727.3,837.83 c -2.0261,0.17093 -2.6055,2.7391 -2.0239,3.6241 0.5815,0.88504 3.0369,1.2955 4.1297,-0.41912 0.4178,-0.65547 1.5933,-2.5717 2.0239,-3.6241 0.2884,-0.705 -1.8247,0.22466 -4.1297,0.41913 z" />
                      <path
                         id="path3294"
                         d="m 1699.7,879.16 c 1.9327,0.63172 3.4665,-1.5079 3.2757,-2.5496 -0.1909,-1.0416 -2.2925,-2.3761 -3.9669,-1.2225 -0.6401,0.44097 -2.4691,1.748 -3.2756,2.5496 -0.5403,0.53696 1.768,0.50378 3.9668,1.2225 z"
                         style="fill:#ffffff" />
                      <path
                         id="path3296"
                         style="fill:#ffffff"
                         d="m 1684.4,866.03 c 0.054,2.0325 2.5843,2.759 3.5014,2.2296 0.9171,-0.5295 1.4685,-2.9571 -0.1802,-4.147 -0.6303,-0.45491 -2.4755,-1.739 -3.5014,-2.2296 -0.6871,-0.32866 0.1191,1.8346 0.1802,4.147 z" />
                      <path
                         id="path3298"
                         d="m 1692.5,844.63 c -2.0324,0.0587 -2.7527,2.5909 -2.221,3.5067 0.5317,0.91582 2.9606,1.4613 4.1466,-0.19026 0.4533,-0.63138 1.7329,-2.4797 2.221,-3.5067 0.327,-0.68799 -1.8342,0.12348 -4.1466,0.19026 z"
                         style="fill:#ffffff" />
                      <path
                         id="path3300"
                         style="fill:#ffffff"
                         d="m 1668.8,883.74 c 1.8203,0.90605 3.649,-0.9878 3.6117,-2.0461 -0.037,-1.0583 -1.9226,-2.6842 -3.7469,-1.7864 -0.6975,0.3432 -2.6971,1.3704 -3.6116,2.0461 -0.6126,0.45269 1.6759,0.75554 3.7468,1.7864 z" />
                      <path
                         id="path3302"
                         d="m 1644.1,883.05 c 0.054,2.0325 2.5842,2.7591 3.5013,2.2296 0.9171,-0.5295 1.4685,-2.9571 -0.1802,-4.147 -0.6303,-0.45491 -2.4755,-1.739 -3.5013,-2.2296 -0.6872,-0.32865 0.119,1.8346 0.1802,4.147 z"
                         style="fill:#ffffff" />
                      <path
                         id="path3304"
                         d="m 1659.7,856.58 c -1.9081,0.70215 -1.7856,3.332 -0.9902,4.0311 0.7954,0.69912 3.2717,0.44367 3.8707,-1.4994 0.229,-0.7428 0.8541,-2.9022 0.9902,-4.0311 0.091,-0.75626 -1.6997,0.70054 -3.8707,1.4994 z"
                         style="fill:#ffffff" />
                      <path
                         id="path3306"
                         d="m 1721.8,872.92 c -1.8889,0.75259 -1.6966,3.3782 -0.8828,4.056 0.8137,0.67775 3.2823,0.35661 3.8295,-1.6017 0.2092,-0.74862 0.7767,-2.9238 0.8828,-4.056 0.071,-0.75842 -1.6805,0.74543 -3.8295,1.6017 z"
                         style="fill:#ffffff" />
                      <path
                         id="path3308"
                         d="m 1782.3,874.58 c 0.054,2.0325 2.5842,2.759 3.5014,2.2296 0.9171,-0.5295 1.4685,-2.9571 -0.1802,-4.147 -0.6303,-0.45491 -2.4755,-1.739 -3.5014,-2.2296 -0.6872,-0.32866 0.1191,1.8346 0.1802,4.147 z"
                         style="fill:#ffffff" />
                      <path
                         id="path3310"
                         d="m 1759.8,880.22 c 1.4138,1.4612 3.7694,0.28569 4.0872,-0.72451 0.3177,-1.0102 -0.9173,-3.1717 -2.9366,-2.9337 -0.772,0.091 -2.9997,0.39242 -4.0872,0.72452 -0.7286,0.22245 1.328,1.2712 2.9366,2.9337 z"
                         style="fill:#ffffff" />
                      <path
                         id="path3312"
                         d="m 1809.4,878.73 c -1.0255,1.7557 0.7422,3.7067 1.8006,3.74 1.0585,0.0333 2.8065,-1.7392 2.0324,-3.6194 -0.2959,-0.71877 -1.1874,-2.7825 -1.8007,-3.74 -0.4108,-0.64147 -0.8657,1.6218 -2.0323,3.6194 z"
                         style="fill:#ffffff" />
                      <path
                         id="path3314"
                         d="m 1828.2,855.49 c -1.4502,1.4252 -0.2563,3.7716 0.7563,4.0815 1.0127,0.30985 3.1645,-0.942 2.9108,-2.9594 -0.097,-0.77123 -0.4158,-2.9965 -0.7564,-4.0814 -0.2281,-0.72678 -1.2608,1.3379 -2.9107,2.9594 z"
                         style="fill:#ffffff" />
                      <path
                         id="path3316"
                         d="m 1845.3,879.05 c 0.054,2.0325 2.5843,2.759 3.5014,2.2296 0.9171,-0.5295 1.4685,-2.9571 -0.1802,-4.147 -0.6303,-0.45491 -2.4755,-1.739 -3.5014,-2.2296 -0.6871,-0.32866 0.1191,1.8346 0.1802,4.147 z"
                         style="fill:#ffffff" />
                      <path
                         id="path3318"
                         d="m 1834.8,871.4 c 2.0332,-10e-4 2.825,-2.512 2.3194,-3.4425 -0.5056,-0.9305 -2.9182,-1.5445 -4.1503,0.0729 -0.4711,0.6183 -1.8025,2.4297 -2.3194,3.4425 -0.3463,0.67846 1.837,-0.0715 4.1503,-0.0729 z"
                         style="fill:#ffffff" />
                      <path
                         id="path3320"
                         d="m 1865.5,886.07 c 1.9175,0.67617 1.8308,3.3074 1.0449,4.0173 -0.7859,0.70986 -3.2654,0.48806 -3.8907,-1.4467 -0.239,-0.73962 -0.8935,-2.8903 -1.0449,-4.0173 -0.1014,-0.75496 1.7091,0.67737 3.8907,1.4467 z"
                         style="fill:#ffffff" />
                    </g>
                    <g
                       transform="matrix(0.97247318,0,0,1.028306,-367.59487,20.56612)"
                       id="g13656">
                      <path
                         id="path13658"
                         d="m 1682.7283,270.46669 c -7.3554,-9.69113 -13.3973,-20.53207 -9.4569,-31.04447 0.5255,-1.64257 1.5762,-3.44939 3.415,-4.76345 6.0419,-4.10642 18.1255,-1.1498 22.5912,3.77791 4.4659,4.92769 4.203,11.00517 6.0419,16.5899 1.5762,4.27068 4.203,8.21283 8.4059,11.82648 2.3643,2.13532 5.5166,4.27066 9.7197,4.92769 8.9313,1.31405 16.2867,-4.59918 19.4389,-10.18391 3.415,-6.24174 4.9911,-12.812 4.7285,-19.218 -0.2628,-4.27068 2.3641,-8.86987 7.8807,-11.49796 5.5164,-2.62811 14.4478,-2.46385 18.9136,0.82127 4.203,2.95662 3.9404,7.39155 3.1523,11.3337 -1.3135,6.406 -3.4152,12.81202 -6.0419,19.05376 -3.1523,6.89877 -7.6181,13.96181 -15.7614,19.21801 -8.6687,5.58472 -21.2778,8.7056 -33.6242,8.21283 -12.3464,-0.49277 -24.43,-4.43492 -31.7854,-10.51242 -2.8896,-2.62811 -5.5164,-5.58472 -7.6179,-8.54134 z" />
                    </g>
                    <g
                       transform="matrix(1.5905732,0,0,1.6890596,663.4486,-423.43428)"
                       id="g13662">
                      <circle
                         id="circle13664"
                         r="21.200001"
                         cy="386.39999"
                         cx="476.39999" />
                      <circle
                         style="fill:#ffffff"
                         id="circle13666"
                         r="6.8000002"
                         cy="381.39999"
                         cx="483.10001" />
                    </g>
                    <g
                       transform="matrix(1.5905732,0,0,1.6890596,663.4486,-423.43428)"
                       id="g13668">
                      <circle
                         id="circle13670"
                         r="21.200001"
                         cy="388.10001"
                         cx="337.89999" />
                      <circle
                         style="fill:#ffffff"
                         id="circle13672"
                         r="6.8000002"
                         cy="383"
                         cx="344.70001" />
                    </g>
                    <path
                       style="fill:#bc8dbc;fill-opacity:1;stroke:#d45252;stroke-width:9;stroke-miterlimit:4;stroke-dasharray:none;stroke-opacity:1"
                       id="path9774"
                       d="m 1096.8758,139.98756 q 2.2388,-31.05054 32.7408,-40.972912 18.046,-5.870456 33.2638,-1.536472 15.1914,4.243764 18.7877,16.605264 2.914,10.01549 -0.01,20.64471 -2.8217,10.59729 -14.7656,29.69315 -14.1123,21.97422 -19.0351,30.88455 -4.9228,8.91036 -9.7044,21.62678 -4.71,12.59432 -5.8824,17.42038 -1.0096,4.2792 -2.2901,5.78218 -1.3068,1.41283 -3.3664,2.0828 -2.0596,0.66992 -3.7406,0.42666 -1.5832,-0.27517 -5.1184,-3.56976 -3.5351,-3.29466 -13.8241,-10.61472 -10.2171,-7.44221 -19.1234,-11.85396 -8.834,-4.53394 -32.861,-14.79269 -17.5427,-7.52842 -26.6408,-14.44572 -9.0002,-6.94917 -12.1242,-17.68649 -3.9113,-13.44427 6.4499,-25.80281 10.3347,-12.4487 28.1848,-18.25539 13.5346,-4.40285 25.7612,-1.86142 12.2988,2.41922 23.2941,16.22587 z" />
                  </g>
                </g>
              </g>
            </g>
          </g>
        </g>
      </g>
    </g>
  </g>
</svg>
